<svg width="35" height="35" viewBox="0 0 180 180" fill="none" xmlns="http://www.w3.org/2000/svg">
<path fill-rule="evenodd" clip-rule="evenodd" d="M126.998 161L87.998 164.5L47.998 161C29.9271 161 12.498 180 4.49805 172.5L18.498 128.5L9.49805 77.0005C32.8542 36.0005 53.4271 6.18945 71.498 6.18945L124.498 15.5006C142.569 15.5006 162.998 28.496 162.998 55L169.498 90L165.498 128.5C143.498 147.5 143.498 146 126.998 161Z" fill="#4AC12F"/>
<path fill-rule="evenodd" clip-rule="evenodd" d="M180.004 87.6851C180.004 136.105 140.442 175.367 91.6391 175.367C76.1411 175.367 61.5801 171.409 48.9221 164.456L-0.00585938 180.004L15.9421 132.961C7.89414 119.745 3.26614 104.247 3.26614 87.6841C3.26614 39.2541 42.8282 -0.00585938 91.6382 -0.00585938C140.442 -0.00485937 180.004 39.2551 180.004 87.6851ZM91.6391 13.9611C50.6621 13.9611 17.3401 47.0281 17.3401 87.6851C17.3401 103.808 22.5932 118.752 31.4911 130.91L22.2132 158.284L50.7591 149.213C62.4871 156.908 76.5401 161.401 91.6391 161.401C132.599 161.401 165.931 128.332 165.931 87.6851C165.931 47.0281 132.599 13.9611 91.6391 13.9611ZM136.261 107.881C135.714 106.983 134.268 106.446 132.111 105.371C129.943 104.298 119.288 99.0931 117.305 98.3811C115.322 97.6661 113.867 97.3061 112.432 99.4541C110.987 101.604 106.834 106.447 105.567 107.882C104.307 109.32 103.047 109.495 100.879 108.42C98.7092 107.347 91.7261 105.07 83.4561 97.7571C77.0211 92.0521 72.6732 85.0211 71.4032 82.8711C70.1462 80.7231 71.2782 79.5611 72.3512 78.4881C73.3292 77.5201 74.5211 75.9781 75.6041 74.7281C76.6891 73.4681 77.0491 72.5681 77.7721 71.1331C78.4951 69.6981 78.1351 68.4481 77.5871 67.3731C77.0491 66.3001 72.7142 55.7221 70.9072 51.4151C69.1122 47.1201 67.3041 47.2801 66.0341 47.2801C64.7741 47.2801 62.4361 47.6551 62.4361 47.6551C62.4361 47.6551 58.0941 48.1931 56.1111 50.3431C54.1281 52.4911 48.5331 57.6961 48.5331 68.2641C48.5331 78.8401 56.2891 89.0651 57.3711 90.4901C58.4561 91.9281 72.3522 114.339 94.3752 122.944C116.399 131.547 116.399 128.677 120.372 128.314C124.337 127.964 133.185 123.119 134.993 118.099C136.799 113.076 136.799 108.771 136.261 107.881Z" fill="white"/>
</svg>
