<svg width="600" height="600" viewBox="0 0 1082 1142" fill="none" xmlns="http://www.w3.org/2000/svg">
<path d="M575.766 872.408C600.656 827.138 616.606 757.468 616.606 679.328C616.606 672.108 616.466 664.968 616.206 657.908H688.246C687.986 664.968 687.846 672.108 687.846 679.328C687.846 757.468 703.796 827.138 728.686 872.408H575.766Z" fill="#F8B805"/>
<path opacity="0.5" d="M687.845 679.328C687.845 672.108 687.985 664.968 688.245 657.908H616.205C616.465 664.968 616.605 672.108 616.605 679.328C616.605 693.26 616.089 706.915 615.115 720.218L615.118 720.221C615.118 720.221 649.784 699.013 689.335 720.22C688.361 706.917 687.845 693.26 687.845 679.328Z" fill="#F8B805"/>
<path opacity="0.5" d="M634.17 657.908H623.823C624.028 664.968 624.138 672.108 624.138 679.328C624.138 757.468 611.561 827.138 591.934 872.408H613.91C626.38 827.138 634.38 757.468 634.38 679.328C634.38 672.108 634.3 664.968 634.17 657.908Z" fill="#F8B805"/>
<path opacity="0.5" d="M728.69 872.408H690.54C678.07 827.138 670.08 757.468 670.08 679.328C670.08 672.108 670.15 664.968 670.28 657.908H688.25C687.99 664.968 687.85 672.108 687.85 679.328C687.85 757.468 703.8 827.138 728.69 872.408Z" fill="#F8B805"/>
<path d="M553.24 614.899C553.21 614.899 553.182 614.899 553.152 614.899C496.914 614.683 453.664 610.39 417.041 601.388C373.153 590.602 338.26 572.778 310.368 546.897C250.584 491.426 222.74 398.307 222.74 253.844C222.74 247.566 225.306 241.561 229.843 237.222C234.38 232.884 240.494 230.595 246.765 230.867C248.532 230.946 424.915 238.679 552.187 232.847C558.462 232.566 564.583 234.852 569.126 239.192C573.669 243.531 576.239 249.541 576.239 255.823V591.898C576.239 598.013 573.804 603.877 569.471 608.193C565.16 612.489 559.323 614.899 553.24 614.899ZM269.011 277.766C271.734 394.766 295.012 469.899 341.656 513.178C380.212 548.952 437.32 565.89 530.24 568.536V279.732C433.425 282.855 318.275 279.526 269.011 277.766Z" fill="#F8B805"/>
<path opacity="0.5" d="M289.917 256.555C278.183 256.185 268.467 265.823 269.002 277.551C269.005 277.622 269.009 277.694 269.012 277.765C318.695 279.532 433.924 282.838 530.24 279.731V257.818C445.28 260.56 346.2 258.332 289.917 256.555Z" fill="#F8B805"/>
<g opacity="0.5">
<path d="M530.238 568.536V562.927C530.706 565.765 530.734 567.695 530.238 568.536Z" fill="#F8B805"/>
<path d="M269 277.551L269.519 277.783C269.351 277.777 269.176 277.771 269.01 277.765C271.733 394.765 295.011 469.898 341.655 513.177C380.211 548.951 437.32 565.889 530.239 568.535C523.737 579.554 486.654 573.951 486.654 573.951C235.437 570.821 269 277.551 269 277.551Z" fill="#F8B805"/>
</g>
<g opacity="0.5">
<path d="M575.625 595.49V259.415C575.625 253.132 573.055 247.123 568.512 242.784C563.969 238.444 557.848 236.158 551.573 236.439C424.301 242.271 247.917 234.538 246.151 234.459C239.88 234.186 233.766 236.476 229.229 240.814C226.091 243.816 223.897 247.615 222.842 251.75C223.345 246.245 225.816 241.077 229.845 237.223C234.382 232.885 240.496 230.596 246.767 230.868C248.534 230.947 424.917 238.68 552.189 232.848C558.464 232.567 564.585 234.853 569.128 239.193C573.671 243.532 576.241 249.542 576.241 255.824V591.899C576.241 593.832 575.996 595.74 575.527 597.581C575.589 596.889 575.625 596.191 575.625 595.49Z" fill="#F8B805"/>
</g>
<g opacity="0.5">
<path d="M512.09 606.038C533.129 606.288 551.672 607.501 567.998 609.524C563.874 612.977 558.658 614.899 553.24 614.899C553.21 614.899 553.181 614.899 553.152 614.899C496.914 614.683 453.664 610.39 417.041 601.388C373.153 590.602 338.26 572.778 310.368 546.897C278.989 517.781 256.414 478.286 242.041 426.445C267.418 503.35 334.547 603.926 512.09 606.038Z" fill="#F8B805"/>
</g>
<path d="M734.979 608.194C730.647 603.878 728.211 598.014 728.211 591.899V255.824C728.211 249.541 730.781 243.532 735.324 239.193C739.867 234.853 745.989 232.567 752.264 232.848C879.536 238.68 1055.92 230.947 1057.69 230.868C1063.96 230.596 1070.07 232.885 1074.61 237.223C1079.14 241.562 1081.71 247.567 1081.71 253.845C1081.71 398.307 1053.87 491.427 994.083 546.898C966.191 572.778 931.298 590.603 887.41 601.389C850.787 610.391 807.537 614.684 751.299 614.9C751.269 614.9 751.24 614.9 751.211 614.9C745.129 614.899 739.291 612.489 734.979 608.194ZM774.212 279.732V568.536C867.131 565.89 924.24 548.951 962.796 513.178C1009.44 469.9 1032.72 394.766 1035.44 277.766C986.176 279.526 871.027 282.855 774.212 279.732Z" fill="#F8B805"/>
<path opacity="0.5" d="M774.213 257.819V279.732C870.529 282.839 985.758 279.533 1035.44 277.766C1035.44 277.694 1035.45 277.623 1035.45 277.552C1035.99 265.824 1026.27 256.185 1014.54 256.556C958.253 258.332 859.173 260.56 774.213 257.819Z" fill="#F8B805"/>
<g opacity="0.5">
<path d="M774.212 568.536V562.927C773.743 565.765 773.716 567.695 774.212 568.536Z" fill="#F8B805"/>
<path d="M1035.45 277.551L1034.93 277.783C1035.1 277.777 1035.27 277.771 1035.44 277.765C1032.72 394.765 1009.44 469.898 962.795 513.177C924.239 548.951 867.13 565.889 774.211 568.535C780.713 579.554 817.796 573.951 817.796 573.951C1069.01 570.821 1035.45 277.551 1035.45 277.551Z" fill="#F8B805"/>
</g>
<g opacity="0.5">
<path d="M728.827 595.49V259.415C728.827 253.132 731.397 247.123 735.94 242.784C740.483 238.444 746.605 236.158 752.879 236.439C880.151 242.271 1056.53 234.538 1058.3 234.459C1064.57 234.186 1070.69 236.476 1075.22 240.814C1078.36 243.816 1080.55 247.615 1081.61 251.75C1081.11 246.245 1078.64 241.077 1074.61 237.223C1070.07 232.885 1063.96 230.596 1057.68 230.868C1055.92 230.947 879.535 238.68 752.263 232.848C745.988 232.567 739.867 234.853 735.324 239.193C730.781 243.532 728.211 249.542 728.211 255.824V591.899C728.211 593.832 728.456 595.74 728.926 597.581C728.863 596.889 728.827 596.191 728.827 595.49Z" fill="#F8B805"/>
</g>
<g opacity="0.5">
<path d="M792.361 606.038C771.322 606.288 752.779 607.501 736.453 609.524C740.577 612.977 745.793 614.899 751.211 614.899C751.241 614.899 751.27 614.899 751.299 614.899C807.537 614.683 850.787 610.39 887.41 601.388C931.298 590.602 966.191 572.778 994.083 546.897C1025.46 517.781 1048.04 478.286 1062.41 426.445C1037.03 503.35 969.903 603.926 792.361 606.038Z" fill="#F8B805"/>
</g>
<path d="M391.735 163.109C385.451 199.101 382.09 236.999 382.09 276.135C382.09 511.006 502.973 701.407 652.09 701.407C801.207 701.407 922.09 511.006 922.09 276.135C922.09 236.999 918.729 199.1 912.445 163.109H391.735Z" fill="#F8B805"/>
<path d="M391.735 163.109C385.451 199.101 382.09 236.999 382.09 276.135C382.09 511.006 502.973 701.407 652.09 701.407C801.207 701.407 922.09 511.006 922.09 276.135C922.09 236.999 918.729 199.1 912.445 163.109H391.735Z" fill="#F8B805"/>
<path opacity="0.5" d="M912.446 163.109H815.123C819.058 199.101 821.162 236.999 821.162 276.135C821.162 511.006 745.466 701.407 652.09 701.407C801.207 701.407 922.09 511.006 922.09 276.135C922.091 236.999 918.73 199.1 912.446 163.109Z" fill="#F8B805"/>
<path opacity="0.5" d="M655.889 302.478L691.273 374.172L770.392 385.668L713.141 441.475L726.656 520.274L655.889 483.07L585.123 520.274L598.638 441.475L541.387 385.668L620.506 374.172L655.889 302.478Z" fill="#F7A108"/>
<path opacity="0.5" d="M483.018 276.135C483.018 236.999 485.122 199.1 489.057 163.109H422.475C416.933 199.101 413.969 236.999 413.969 276.135C413.969 511.006 520.579 701.407 652.089 701.407C558.714 701.407 483.018 511.007 483.018 276.135Z" fill="#F8B805"/>
<path d="M512.352 236.645C481.003 236.645 455.589 211.231 455.589 179.882C455.589 211.231 430.175 236.645 398.826 236.645C430.175 236.645 455.589 262.059 455.589 293.408C455.589 262.058 481.003 236.645 512.352 236.645Z" fill="white"/>
<path d="M534.854 293.408C522.428 293.408 512.354 283.334 512.354 270.908C512.354 283.334 502.28 293.408 489.854 293.408C502.28 293.408 512.354 303.482 512.354 315.908C512.354 303.481 522.428 293.408 534.854 293.408Z" fill="white"/>
<path opacity="0.5" d="M648.347 171.495C790.071 171.495 904.961 167.74 904.961 163.108H391.734C391.734 167.741 506.624 171.495 648.347 171.495Z" fill="#F8B805"/>
<path d="M761.292 872.408H543.162C514.359 872.408 491.01 895.757 491.01 924.56H813.445C813.444 895.757 790.095 872.408 761.292 872.408Z" fill="#F8B805"/>
<path opacity="0.5" d="M543.162 876.321H761.292C788.777 876.321 811.28 897.587 813.283 924.56H813.444C813.444 895.757 790.095 872.408 761.292 872.408H543.162C514.359 872.408 491.01 895.757 491.01 924.56H491.171C493.174 897.587 515.677 876.321 543.162 876.321Z" fill="#F8B805"/>
<path opacity="0.5" d="M813.44 924.558H755.11C755.11 895.758 740.21 872.408 721.83 872.408H761.29C790.09 872.408 813.44 895.758 813.44 924.558Z" fill="#F8B805"/>
<path opacity="0.5" d="M607.562 872.408H564.505C535.702 872.408 512.354 895.757 512.354 924.56H555.41C555.41 895.757 578.76 872.408 607.562 872.408Z" fill="#F8B805"/>
<path d="M897.675 924.56H406.774C404.107 924.56 401.945 926.722 401.945 929.389V1120.08C401.945 1122.75 404.107 1124.91 406.774 1124.91H897.675C900.342 1124.91 902.504 1122.75 902.504 1120.08V929.389C902.504 926.722 900.342 924.56 897.675 924.56Z" fill="#44352A"/>
<path opacity="0.3" d="M897.675 1090.47H406.774C404.107 1090.47 401.945 1088.31 401.945 1085.64V1120.08C401.945 1122.75 404.107 1124.91 406.774 1124.91H897.675C900.342 1124.91 902.504 1122.75 902.504 1120.08V1085.64C902.504 1088.31 900.342 1090.47 897.675 1090.47Z" fill="#44352A"/>
<g opacity="0.3">
<path d="M406.774 1124.91H436.976C425.648 1124.91 414.465 1124.45 403.447 1123.57C404.315 1124.39 405.482 1124.91 406.774 1124.91Z" fill="#44352A"/>
<path d="M897.675 924.56H747.596C724.42 1038.02 594.178 1124.91 436.977 1124.91H897.675C900.342 1124.91 902.504 1122.75 902.504 1120.08V929.389C902.504 926.722 900.342 924.56 897.675 924.56Z" fill="#44352A"/>
</g>
<path opacity="0.3" d="M897.675 924.56H406.774C404.107 924.56 401.945 926.722 401.945 929.389V935.65C401.945 932.983 404.107 930.821 406.774 930.821H897.675C900.342 930.821 902.504 932.983 902.504 935.65V929.389C902.504 926.722 900.342 924.56 897.675 924.56Z" fill="#44352A"/>
<path d="M934.928 1099.08H369.524C366.166 1099.08 363.443 1101.8 363.443 1105.16V1135.26C363.443 1138.62 366.165 1141.34 369.524 1141.34H934.928C938.286 1141.34 941.009 1138.62 941.009 1135.26V1105.16C941.008 1101.8 938.286 1099.08 934.928 1099.08Z" fill="#44352A"/>
<path opacity="0.3" d="M934.928 1135.88H369.524C366.166 1135.88 363.443 1133.16 363.443 1129.8V1135.26C363.443 1138.62 366.165 1141.34 369.524 1141.34H934.928C938.286 1141.34 941.009 1138.62 941.009 1135.26V1129.8C941.008 1133.16 938.286 1135.88 934.928 1135.88Z" fill="#44352A"/>
<path opacity="0.3" d="M934.928 1099.08H369.524C366.166 1099.08 363.443 1101.8 363.443 1105.16V1110.79C363.443 1107.43 366.165 1104.71 369.524 1104.71H934.928C938.286 1104.71 941.009 1107.43 941.009 1110.79V1105.16C941.008 1101.8 938.286 1099.08 934.928 1099.08Z" fill="#44352A"/>
<path opacity="0.3" d="M934.928 1099.08H773.711C777.069 1099.08 779.792 1101.8 779.792 1105.16V1135.26C779.792 1138.62 777.07 1141.34 773.711 1141.34H934.928C938.286 1141.34 941.009 1138.62 941.009 1135.26V1105.16C941.008 1101.8 938.286 1099.08 934.928 1099.08Z" fill="#44352A"/>
<path opacity="0.3" d="M498.308 1135.26V1105.16C498.308 1101.8 501.03 1099.08 504.389 1099.08H416.684C413.326 1099.08 410.604 1101.8 410.604 1105.16V1135.26C410.604 1138.62 413.326 1141.34 416.684 1141.34H504.389C501.031 1141.34 498.308 1138.62 498.308 1135.26Z" fill="#44352A"/>
<path d="M857.238 954.109H446.369V1075.16H857.238V954.109Z" fill="#EFCA6F"/>
<path opacity="0.5" d="M857.238 1072.57H446.369V1075.16H857.238V1072.57Z" fill="#EFCA6F"/>
<path opacity="0.5" d="M857.238 954.109H446.369V956.693H857.238V954.109Z" fill="#EFCA6F"/>
<path opacity="0.5" d="M491.008 924.56H813.443C813.443 921.352 813.138 918.217 812.583 915.169H491.868C491.313 918.217 491.008 921.352 491.008 924.56Z" fill="#F8B805"/>
<path opacity="0.3" d="M738.937 954.109C720.28 1002.72 681.48 1044.88 629.779 1075.16H857.239V954.109H738.937Z" fill="#EFCA6F"/>
<path opacity="0.5" d="M462.543 976.184C466.433 976.184 469.586 973.03 469.586 969.141C469.586 965.251 466.433 962.098 462.543 962.098C458.653 962.098 455.5 965.251 455.5 969.141C455.5 973.03 458.653 976.184 462.543 976.184Z" fill="#EFCA6F"/>
<path opacity="0.5" d="M848.63 969.172C848.63 965.282 845.477 962.129 841.587 962.129C837.697 962.129 834.543 965.282 834.543 969.172C834.543 973.062 837.696 976.215 841.587 976.215C845.477 976.216 848.63 973.062 848.63 969.172Z" fill="#EFCA6F"/>
<path opacity="0.5" d="M841.588 1067.07C845.478 1067.07 848.631 1063.92 848.631 1060.03C848.631 1056.14 845.478 1052.98 841.588 1052.98C837.698 1052.98 834.545 1056.14 834.545 1060.03C834.545 1063.92 837.698 1067.07 841.588 1067.07Z" fill="#EFCA6F"/>
<path d="M462.022 975.429C465.911 975.429 469.065 972.275 469.065 968.386C469.065 964.496 465.911 961.343 462.022 961.343C458.132 961.343 454.979 964.496 454.979 968.386C454.979 972.275 458.132 975.429 462.022 975.429Z" fill="#44352A"/>
<path opacity="0.5" d="M462.543 1066.99C466.433 1066.99 469.586 1063.84 469.586 1059.95C469.586 1056.06 466.433 1052.91 462.543 1052.91C458.653 1052.91 455.5 1056.06 455.5 1059.95C455.5 1063.84 458.653 1066.99 462.543 1066.99Z" fill="#EFCA6F"/>
<path d="M462.022 1066.21C465.911 1066.21 469.065 1063.06 469.065 1059.17C469.065 1055.28 465.911 1052.13 462.022 1052.13C458.132 1052.13 454.979 1055.28 454.979 1059.17C454.979 1063.06 458.132 1066.21 462.022 1066.21Z" fill="#44352A"/>
<path d="M841.588 975.429C845.478 975.429 848.631 972.275 848.631 968.386C848.631 964.496 845.478 961.343 841.588 961.343C837.698 961.343 834.545 964.496 834.545 968.386C834.545 972.275 837.698 975.429 841.588 975.429Z" fill="#44352A"/>
<path d="M841.588 1066.21C845.478 1066.21 848.631 1063.06 848.631 1059.17C848.631 1055.28 845.478 1052.13 841.588 1052.13C837.698 1052.13 834.545 1055.28 834.545 1059.17C834.545 1063.06 837.698 1066.21 841.588 1066.21Z" fill="#44352A"/>
</svg>
